<svg width="600" height="600" viewBox="0 0 600 600" fill="none" xmlns="http://www.w3.org/2000/svg">
<rect width="600" height="600" rx="90" fill="#155B1C"/>
<path d="M222.25 372.186C220.688 384.295 215.219 393.475 205.844 399.725C196.599 405.844 186.312 408.774 174.984 408.514C160.271 408.253 150.115 403.37 144.516 393.865C138.917 384.23 136.508 372.837 137.289 359.686L84.1641 359.49C83.1224 383.709 88.526 404.217 100.375 421.014C112.224 437.68 130.518 447.706 155.258 451.092L148.031 489.764H178.5L185.531 451.482C208.448 449.139 228.63 441.587 246.078 428.826C263.526 416.066 273.031 397.055 274.594 371.795C275.375 359.555 273.943 348.878 270.297 339.764C266.651 330.519 261.443 322.381 254.672 315.35C247.901 308.449 239.958 302.394 230.844 297.186C221.729 291.847 212.159 287.029 202.133 282.732C197.185 280.649 192.432 278.436 187.875 276.092C183.318 273.618 179.346 270.753 175.961 267.498C172.576 264.373 169.971 260.662 168.148 256.365C166.326 251.938 165.805 246.665 166.586 240.545C168.148 229.217 172.771 220.232 180.453 213.592C188.266 206.951 197.966 203.761 209.555 204.021C222.966 204.282 231.69 209.555 235.727 219.842C239.893 229.998 241.716 240.675 241.195 251.873H294.125C295.167 229.998 290.935 210.532 281.43 193.475C271.924 176.417 255.714 165.675 232.797 161.248L240.609 118.475H209.945L202.133 160.467C178.956 162.811 158.904 170.688 141.977 184.1C125.049 197.511 115.805 216.326 114.242 240.545C113.461 252.785 114.893 263.527 118.539 272.771C122.315 281.886 127.654 289.894 134.555 296.795C141.326 303.826 149.268 309.946 158.383 315.154C167.628 320.232 177.328 324.855 187.484 329.021C192.562 331.105 197.315 333.383 201.742 335.857C206.299 338.331 210.271 341.196 213.656 344.451C216.911 347.837 219.32 351.808 220.883 356.365C222.576 360.792 223.031 366.066 222.25 372.186Z" fill="white"/>
<path d="M442.252 371.963C440.689 384.072 435.221 393.252 425.846 399.502C416.601 405.622 406.314 408.551 394.986 408.291C380.273 408.031 370.117 403.148 364.518 393.643C358.919 384.007 356.51 372.614 357.291 359.463L304.166 359.268C303.124 383.486 308.528 403.994 320.377 420.791C332.226 437.458 350.52 447.484 375.26 450.869L368.033 489.541H398.502L405.533 451.26C428.45 448.916 448.632 441.364 466.08 428.604C483.528 415.843 493.033 396.833 494.596 371.572C495.377 359.333 493.945 348.656 490.299 339.541C486.653 330.296 481.445 322.158 474.674 315.127C467.903 308.226 459.96 302.171 450.846 296.963C441.731 291.624 432.161 286.807 422.135 282.51C417.187 280.426 412.434 278.213 407.877 275.869C403.32 273.395 399.348 270.531 395.963 267.275C392.577 264.15 389.973 260.439 388.15 256.143C386.327 251.715 385.807 246.442 386.588 240.322C388.15 228.994 392.773 220.01 400.455 213.369C408.268 206.729 417.968 203.538 429.557 203.799C442.968 204.059 451.692 209.333 455.729 219.619C459.895 229.775 461.718 240.452 461.197 251.65H514.127C515.169 229.775 510.937 210.309 501.432 193.252C491.926 176.195 475.715 165.452 452.799 161.025L460.611 118.252H429.947L422.135 160.244C398.958 162.588 378.906 170.465 361.979 183.877C345.051 197.288 335.807 216.104 334.244 240.322C333.463 252.562 334.895 263.304 338.541 272.549C342.317 281.663 347.656 289.671 354.557 296.572C361.327 303.604 369.27 309.723 378.385 314.932C387.63 320.01 397.33 324.632 407.486 328.799C412.564 330.882 417.317 333.161 421.744 335.635C426.301 338.109 430.273 340.973 433.658 344.229C436.913 347.614 439.322 351.585 440.885 356.143C442.577 360.57 443.033 365.843 442.252 371.963Z" fill="white"/>
<path d="M264.664 138.724C262.428 140.78 262.282 144.26 264.338 146.496C266.395 148.732 269.874 148.877 272.11 146.821L264.664 138.724ZM517.392 167.537C517.26 170.572 519.614 173.139 522.648 173.27L572.102 175.413C575.137 175.544 577.703 173.191 577.835 170.156C577.966 167.121 575.613 164.554 572.578 164.423L528.619 162.518L530.524 118.56C530.655 115.525 528.302 112.958 525.267 112.827C522.232 112.695 519.666 115.049 519.534 118.083L517.392 167.537ZM272.11 146.821C373.578 53.515 463.505 35.2486 513.034 51.1243C537.662 59.0181 551.893 75.0586 554.17 94.284C556.475 113.754 546.766 138.416 519.169 163.721L526.604 171.829C555.641 145.203 567.971 117.295 565.093 92.9907C562.187 68.4415 544.014 49.5031 516.392 40.6492C461.421 23.0295 367.464 44.1926 264.664 138.724L272.11 146.821Z" fill="white"/>
<path d="M341.994 475.491C344.398 473.634 344.841 470.18 342.985 467.776C341.128 465.372 337.674 464.929 335.27 466.785L341.994 475.491ZM83.6123 436.007C83.8159 432.976 81.5241 430.355 78.4934 430.151L29.1047 426.833C26.074 426.629 23.452 428.921 23.2484 431.952C23.0448 434.982 25.3366 437.604 28.3674 437.808L72.2684 440.757L69.319 484.659C69.1153 487.689 71.4072 490.311 74.4379 490.515C77.4686 490.718 80.0906 488.427 80.2942 485.396L83.6123 436.007ZM335.27 466.785C226.676 550.665 135.246 565.28 85.8301 548.512C61.2597 540.174 47.6893 524.443 45.9026 506.058C44.0883 487.39 54.1822 463.871 81.7443 439.78L74.5051 431.497C45.5655 456.793 32.6588 483.503 34.9542 507.122C37.2771 531.025 54.9266 549.641 82.2954 558.928C136.758 577.41 232.083 560.388 341.994 475.491L335.27 466.785Z" fill="white"/>
</svg>
